<?xml version="1.0" encoding="UTF-8"?>
<svg id="Layer_1" data-name="Layer 1" xmlns="http://www.w3.org/2000/svg" viewBox="0 0 600 600">
  <defs>
    <style>
      .cls-1 {
        fill: #fff;
      }
    </style>
  </defs>
  <path class="cls-1" d="M527.25,387.88c-1.39-.27-2.15-1.3-2.48-1.89l-.31-.54c-.27-.77-.25-1.64.08-2.48,2.79-7.29,4.2-14.96,4.2-22.8,0-34.96-28.44-63.4-63.4-63.4-12.57,0-24.74,3.7-35.22,10.72-.84.56-1.84.75-2.84.52-.95-.22-1.82-.88-2.33-1.75-19.27-33.43-55.17-54.2-93.69-54.2-21.92,0-42.33,6.56-59.38,17.82-6.82-17.88-24.13-30.62-44.38-30.62-9.41,0-18.53,2.77-26.39,8.03-.07.04-.17.1-.35.06-.09-.02-.23-.11-.3-.24-14.17-24.57-40.56-39.84-68.87-39.84-43.82,0-79.47,35.65-79.47,79.47,0,1.3.05,2.56.11,3.97.01.27-.13.48-.34.55-28.56,10.04-47.75,37.14-47.75,67.45,0,39.41,32.06,71.47,71.47,71.47h85.44c-3.23,9.7-4.97,20-4.97,30.6,0,53.45,43.48,96.93,96.93,96.93h257.12c47.29,0,85.75-38.47,85.75-85.75,0-40.61-28.82-75.97-68.62-84.08ZM75.6,415.19c-31.14,0-56.47-25.33-56.47-56.47,0-23.95,15.16-45.37,37.76-53.32,6.46-2.31,10.6-8.47,10.31-15.32-.05-1.23-.09-2.33-.09-3.34,0-35.55,28.92-64.47,64.47-64.47,22.97,0,44.38,12.39,55.88,32.34,2.15,3.71,5.75,6.38,9.89,7.35,4.17.97,8.6.15,12.12-2.22,5.36-3.59,11.59-5.48,18.02-5.48,15.48,0,28.45,10.89,31.7,25.4-22.11,19.81-36.05,48.56-36.05,80.52,0,1.76.07,3.49.15,5.42.07,1.7-.92,3.16-2.47,3.72-23.4,8.22-42.15,24.9-53.33,45.88h-91.89ZM510.12,542.72H253c-45.18,0-81.93-36.75-81.93-81.93,0-34.75,21.99-65.82,54.77-77.34,7.79-2.79,12.79-10.22,12.44-18.48-.07-1.75-.13-3.32-.13-4.79,0-51.34,41.77-93.11,93.11-93.11,33.18,0,64.1,17.89,80.71,46.7,2.59,4.47,6.93,7.7,11.92,8.86,5.03,1.17,10.36.19,14.61-2.68,7.98-5.34,17.26-8.17,26.85-8.17,26.69,0,48.4,21.71,48.4,48.4,0,6-1.08,11.87-3.2,17.42-2.01,5.19-1.61,10.93,1.08,15.73l2.15,3.83h.74c2.65,2.8,6.09,4.72,9.84,5.44,32.76,6.68,56.53,35.85,56.53,69.37,0,39.01-31.74,70.75-70.75,70.75Z"/>
  <path class="cls-1" d="M286.74,117.28h52.5v52.5c0,4.14,3.36,7.5,7.5,7.5s7.5-3.36,7.5-7.5v-52.5h52.5c4.14,0,7.5-3.36,7.5-7.5s-3.36-7.5-7.5-7.5h-52.5v-52.5c0-4.14-3.36-7.5-7.5-7.5s-7.5,3.36-7.5,7.5v52.5h-52.5c-4.14,0-7.5,3.36-7.5,7.5s3.36,7.5,7.5,7.5Z"/>
</svg>