<?xml version="1.0" encoding="UTF-8"?>
<svg id="Layer_1" data-name="Layer 1" xmlns="http://www.w3.org/2000/svg" viewBox="0 0 600 600">
  <defs>
    <style>
      .cls-1 {
        fill: #fff;
      }
    </style>
  </defs>
  <path class="cls-1" d="M531.53,428.19c-1.17-.22-1.83-1.11-2.12-1.62l-.28-.48c-.22-.65-.19-1.38.08-2.08,2.67-6.98,4.02-14.32,4.02-21.82,0-33.46-27.22-60.67-60.67-60.67-12.03,0-23.67,3.54-33.71,10.26-.71.48-1.56.64-2.41.44-.81-.19-1.55-.75-1.98-1.49-18.4-31.92-52.67-51.75-89.45-51.75-41.43,0-77.23,24.54-93.65,59.85-22.93-16.75-37.86-43.88-37.86-74.44,0-33.15,17.9-63.9,46.69-80.24,6.19-3.45,9.44-10.73,7.9-17.69-1.55-7.01-7.4-12.14-14.54-12.75-3.57-.33-7.29-.49-11.39-.49-73.61,0-133.5,60.01-133.5,133.77,0,25.45,7.06,49.8,20.22,70.84-1.45-.08-2.91-.14-4.38-.14-41.89,0-75.97,34.08-75.97,75.97,0,1.24.05,2.45.1,3.79,0,.1-.03.15-.08.17-27.31,9.6-45.67,35.53-45.67,64.51,0,37.69,30.67,68.36,68.36,68.36h174.97c3.71,0,7.34-.34,10.87-.98,4.4.64,8.89.98,13.47.98h244.6c45.18,0,81.94-36.76,81.94-81.94,0-38.81-27.54-72.59-65.58-80.35ZM119.98,306.98c0-67.52,54.81-122.45,122.18-122.45,3.74,0,7.13.14,10.38.45,2.18.19,4.02,1.8,4.49,3.91.47,2.13-.5,4.33-2.4,5.39-32.36,18.36-52.46,52.89-52.46,90.1s17.8,66.6,44.88,85.25c-3.41,10.24-5.26,21.18-5.26,32.55,0,1.68.06,3.33.14,5.17.06,1.45-.78,2.7-2.1,3.17-1.63.57-3.24,1.21-4.82,1.87-5.85-2.74-12.38-4.28-19.25-4.28-9.03,0-17.77,2.66-25.34,7.71-.01,0-.05-.03-.06-.06-10.15-17.62-26.88-30.23-46.03-35.43-15.79-21.05-24.34-46.54-24.34-73.35ZM71.25,575.48c-29.42,0-53.36-23.94-53.36-53.36,0-22.63,14.32-42.87,35.68-50.38,6.29-2.25,10.33-8.26,10.05-14.93-.05-1.16-.09-2.2-.09-3.16,0-33.62,27.35-60.97,60.97-60.97,21.72,0,41.97,11.72,52.85,30.59,2.09,3.61,5.61,6.22,9.64,7.16,4.07.95,8.39.15,11.82-2.17,5.03-3.37,10.89-5.15,16.94-5.15.07,0,.14,0,.21,0-23.41,17.13-37.98,44.74-37.98,74.78,0,32.45,16.78,61.04,42.12,77.58H71.25ZM515.16,575.48h-244.6c-42.78,0-77.58-34.8-77.58-77.58,0-32.9,20.82-62.33,51.86-73.23,7.56-2.71,12.42-9.92,12.07-17.94-.07-1.66-.13-3.15-.13-4.54,0-48.64,39.57-88.21,88.21-88.21,31.43,0,60.73,16.95,76.46,44.25,2.51,4.34,6.73,7.47,11.57,8.6,4.88,1.13,10.06.18,14.18-2.6,7.53-5.04,16.29-7.71,25.34-7.71,25.19,0,45.67,20.49,45.67,45.67,0,5.67-1.02,11.21-3.02,16.44-1.95,5.04-1.56,10.61,1.05,15.28l2.15,3.83h.76c2.56,2.66,5.85,4.48,9.44,5.17,30.99,6.32,53.49,33.92,53.49,65.63,0,36.91-30.03,66.94-66.94,66.94Z"/>
  <path class="cls-1" d="M287.97,84.52h52.5v52.5c0,4.14,3.36,7.5,7.5,7.5s7.5-3.36,7.5-7.5v-52.5h52.5c4.14,0,7.5-3.36,7.5-7.5s-3.36-7.5-7.5-7.5h-52.5V17.02c0-4.14-3.36-7.5-7.5-7.5s-7.5,3.36-7.5,7.5v52.5h-52.5c-4.14,0-7.5,3.36-7.5,7.5s3.36,7.5,7.5,7.5Z"/>
</svg>