<?xml version="1.0" encoding="UTF-8"?>
<svg id="Layer_1" data-name="Layer 1" xmlns="http://www.w3.org/2000/svg" viewBox="0 0 600 600">
  <defs>
    <style>
      .cls-1 {
        fill: #fff;
      }
    </style>
  </defs>
  <path class="cls-1" d="M366.34,482.08c-8.59,1.59-17.81,2.4-27.4,2.4-88.26,0-160.06-72.01-160.06-160.52,0-57.8,31.22-111.43,81.42-139.92,9.79-5.46,14.93-16.97,12.5-27.99-2.45-11.1-11.72-19.21-23.02-20.18-6.06-.56-12.4-.83-19.37-.83-60.75,0-117.84,23.7-160.78,66.74C26.71,244.8,3.08,301.99,3.08,362.82s23.64,118.02,66.56,161.02c42.9,42.98,99.95,66.64,160.66,66.64h.22c59.42,0,115.66-22.9,158.37-64.49,8.12-7.95,10.12-20.08,4.99-30.19-5.17-10.17-16.2-15.68-27.54-13.72ZM378.4,515.26c-39.87,38.83-92.39,60.22-147.89,60.22h-.21c-56.7,0-109.98-22.1-150.05-62.24-40.09-40.17-62.17-93.59-62.17-150.43s22.08-110.25,62.16-150.44c40.1-40.2,93.42-62.34,150.16-62.34,6.51,0,12.39.25,18.04.77,4.7.4,8.69,3.89,9.71,8.47,1.02,4.61-1.1,9.4-5.2,11.69-54.94,31.18-89.07,89.8-89.07,152.99,0,96.78,78.53,175.52,175.06,175.52,10.51,0,20.65-.89,30.05-2.63,4.72-.82,9.35,1.49,11.51,5.75,2.15,4.24,1.3,9.33-2.1,12.66Z"/>
  <path class="cls-1" d="M589.42,247.47h-87.98v-87.98c0-4.14-3.36-7.5-7.5-7.5s-7.5,3.36-7.5,7.5v87.98h-87.98c-4.14,0-7.5,3.36-7.5,7.5s3.36,7.5,7.5,7.5h87.98v87.98c0,4.14,3.36,7.5,7.5,7.5s7.5-3.36,7.5-7.5v-87.98h87.98c4.14,0,7.5-3.36,7.5-7.5s-3.36-7.5-7.5-7.5Z"/>
  <path class="cls-1" d="M288.16,84.52h52.5v52.5c0,4.14,3.36,7.5,7.5,7.5s7.5-3.36,7.5-7.5v-52.5h52.5c4.14,0,7.5-3.36,7.5-7.5s-3.36-7.5-7.5-7.5h-52.5V17.02c0-4.14-3.36-7.5-7.5-7.5s-7.5,3.36-7.5,7.5v52.5h-52.5c-4.14,0-7.5,3.36-7.5,7.5s3.36,7.5,7.5,7.5Z"/>
</svg>