<?xml version="1.0" encoding="UTF-8"?>
<svg id="Layer_1" data-name="Layer 1" xmlns="http://www.w3.org/2000/svg" viewBox="0 0 600 600">
  <defs>
    <style>
      .cls-1 {
        fill: #fff;
      }
    </style>
  </defs>
  <path class="cls-1" d="M518.62,339.14c-1.39-.27-2.15-1.3-2.48-1.89l-.31-.53c-.27-.77-.25-1.65.08-2.48,2.78-7.29,4.2-14.96,4.2-22.8,0-34.96-28.44-63.4-63.39-63.4-12.56,0-24.73,3.7-35.22,10.72-.83.56-1.84.75-2.83.52-.95-.22-1.82-.88-2.33-1.75-19.27-33.43-55.17-54.2-93.69-54.2-3.84,0-7.64.21-11.38.6-8.31-7.73-18.72-13.3-30.42-15.69-.1-.02-.22-.14-.32-.3l-.08-.14c0-.08.03-.16.05-.21,2.09-5.46,3.14-11.2,3.14-17.07,0-26.18-21.3-47.48-47.49-47.48-9.41,0-18.53,2.77-26.39,8.03-.07.04-.17.1-.35.06-.09-.02-.22-.11-.3-.24-14.17-24.57-40.56-39.84-68.87-39.84-43.82,0-79.47,35.65-79.47,79.47,0,1.32.05,2.63.11,3.96.01.27-.13.48-.34.56-28.56,10.04-47.75,37.14-47.75,67.45,0,39.41,32.06,71.48,71.48,71.48h130.32c.03.96.06,1.92.1,2.9.07,1.69-.91,3.16-2.47,3.72-38.73,13.61-64.75,50.37-64.75,91.48,0,53.45,43.48,96.93,96.93,96.93h257.12c47.28,0,85.75-38.47,85.75-85.75,0-40.61-28.82-75.97-68.62-84.08ZM27.76,242.47c0-23.95,15.16-45.37,37.76-53.32,6.46-2.31,10.6-8.47,10.31-15.33-.05-1.17-.09-2.3-.09-3.33,0-35.55,28.92-64.47,64.47-64.47,22.97,0,44.38,12.39,55.88,32.34,2.15,3.71,5.75,6.38,9.89,7.35,4.17.97,8.6.15,12.12-2.22,5.36-3.58,11.59-5.48,18.02-5.48,17.91,0,32.49,14.57,32.49,32.48,0,4.03-.73,7.97-2.15,11.69-1.67,4.31-1.34,9.08.91,13.07l2.15,3.83h.9c2.1,1.96,4.69,3.31,7.49,3.85,4.82.98,9.34,2.7,13.49,4.98-40.59,12.27-71.18,47.8-76.17,91.03H84.23c-31.14,0-56.48-25.33-56.48-56.48ZM501.49,493.97H244.37c-45.18,0-81.93-36.75-81.93-81.93,0-34.75,21.99-65.82,54.77-77.34,7.79-2.79,12.79-10.22,12.44-18.48-.07-1.67-.13-3.3-.13-4.79,0-51.34,41.77-93.11,93.11-93.11,33.18,0,64.1,17.89,80.71,46.7,2.59,4.47,6.93,7.7,11.92,8.86,5.03,1.17,10.36.19,14.6-2.68,7.98-5.34,17.27-8.17,26.85-8.17,26.68,0,48.39,21.71,48.39,48.4,0,6-1.08,11.87-3.2,17.42-2.01,5.19-1.61,10.93,1.08,15.73l2.15,3.83h.74c2.65,2.8,6.09,4.72,9.84,5.44,32.76,6.68,56.53,35.85,56.53,69.37,0,39.01-31.74,70.75-70.75,70.75Z"/>
</svg>