<?xml version="1.0" encoding="UTF-8"?>
<svg id="Layer_1" data-name="Layer 1" xmlns="http://www.w3.org/2000/svg" viewBox="0 0 600 600">
  <defs>
    <style>
      .cls-1 {
        fill: #fff;
      }
    </style>
  </defs>
  <path class="cls-1" d="M499.46,283.72c-2.07-.4-3.9-1.76-5.02-3.75l-.49-.84c-.65-1.65-.65-3.53.03-5.28,3.6-9.43,5.43-19.35,5.43-29.48,0-45.19-36.77-81.96-81.96-81.96-16.25,0-31.98,4.78-45.53,13.85-1.69,1.14-3.73,1.52-5.74,1.05-1.95-.45-3.67-1.74-4.7-3.51-25.23-43.77-72.23-70.96-122.66-70.96-78.04,0-141.54,63.49-141.54,141.54,0,2.3.09,4.58.19,7.11.14,3.32-1.87,6.3-4.95,7.41-50.6,17.78-84.6,65.81-84.6,119.52,0,69.83,56.81,126.64,126.64,126.64h342.53c61.62,0,111.75-50.13,111.75-111.75,0-52.93-37.56-99-89.4-109.57ZM477.1,490.04H134.57c-61.56,0-111.64-50.08-111.64-111.64,0-47.35,29.97-89.69,74.61-105.38,9.34-3.35,15.34-12.26,14.92-22.17-.1-2.36-.18-4.48-.18-6.48,0-69.77,56.76-126.54,126.54-126.54,45.09,0,87.11,24.31,109.67,63.46,3.1,5.36,8.31,9.23,14.29,10.62,6.03,1.4,12.42.22,17.5-3.21,11.04-7.39,23.89-11.3,37.16-11.3,36.92,0,66.96,30.04,66.96,66.96,0,8.3-1.49,16.42-4.43,24.1-2.4,6.22-1.93,13.09,1.29,18.84l2.15,3.83h.63c3.27,3.78,7.66,6.37,12.5,7.29,44.79,9.13,77.3,49.03,77.3,94.85,0,53.35-43.4,96.75-96.75,96.75Z"/>
  <path class="cls-1" d="M326.06,254.04c-7.37-3.66-15.96-5.48-25.78-5.48-8.97,0-17.15,1.71-24.54,5.12-7.39,3.42-13.33,8.45-17.81,15.09-4.48,6.65-6.91,14.77-7.29,24.38h24.34c.37-5.66,1.79-10.29,4.24-13.89,2.45-3.6,5.55-6.26,9.29-7.97,3.74-1.71,7.66-2.56,11.77-2.56,4.54,0,8.66.95,12.37,2.84,3.71,1.9,6.69,4.58,8.93,8.05,2.24,3.47,3.36,7.58,3.36,12.33,0,3.95-.75,7.55-2.24,10.81-1.5,3.26-3.52,6.14-6.08,8.65-2.56,2.51-5.44,4.78-8.65,6.8-4.96,2.99-9.21,6.3-12.73,9.93-3.52,3.63-6.23,8.38-8.13,14.25-1.89,5.87-2.9,13.77-3,23.7v1.52h22.9v-1.52c.11-6.14.8-11.29,2.08-15.45s3.32-7.77,6.12-10.81c2.8-3.04,6.47-5.98,11.01-8.81,4.8-2.88,8.93-6.19,12.37-9.93,3.44-3.74,6.1-7.99,7.97-12.77,1.87-4.78,2.8-10.15,2.8-16.13,0-8.7-2.04-16.32-6.12-22.86-4.08-6.54-9.81-11.64-17.17-15.29Z"/>
  <path class="cls-1" d="M296.2,384.35c-4.38,0-8.14,1.56-11.29,4.68-3.15,3.12-4.72,6.87-4.72,11.25s1.57,8.21,4.72,11.33c3.15,3.12,6.91,4.68,11.29,4.68,2.93,0,5.6-.72,8.01-2.16,2.4-1.44,4.34-3.38,5.8-5.8,1.47-2.43,2.2-5.11,2.2-8.05,0-4.38-1.59-8.13-4.76-11.25s-6.92-4.68-11.25-4.68Z"/>
</svg>