<?xml version="1.0" encoding="UTF-8"?>
<svg id="Layer_1" data-name="Layer 1" xmlns="http://www.w3.org/2000/svg" viewBox="0 0 600 600">
  <defs>
    <style>
      .cls-1 {
        fill: #fff;
      }
    </style>
  </defs>
  <path class="cls-1" d="M589.42,247.47h-87.98v-87.98c0-4.14-3.36-7.5-7.5-7.5s-7.5,3.36-7.5,7.5v87.98h-87.98c-4.14,0-7.5,3.36-7.5,7.5s3.36,7.5,7.5,7.5h87.98v87.98c0,4.14,3.36,7.5,7.5,7.5s7.5-3.36,7.5-7.5v-87.98h87.98c4.14,0,7.5-3.36,7.5-7.5s-3.36-7.5-7.5-7.5Z"/>
  <path class="cls-1" d="M288.16,84.52h52.5v52.5c0,4.14,3.36,7.5,7.5,7.5s7.5-3.36,7.5-7.5v-52.5h52.5c4.14,0,7.5-3.36,7.5-7.5s-3.36-7.5-7.5-7.5h-52.5V17.02c0-4.14-3.36-7.5-7.5-7.5s-7.5,3.36-7.5,7.5v52.5h-52.5c-4.14,0-7.5,3.36-7.5,7.5s3.36,7.5,7.5,7.5Z"/>
  <path class="cls-1" d="M366.34,482.08c-8.59,1.59-17.81,2.4-27.4,2.4-24.59,0-47.91-5.6-68.75-15.58h60.83c33.42,0,60.62-27.19,60.62-60.62,0-28.71-20.37-53.7-48.48-59.42-.01,0-.05-.04-.09-.12h0c1.99-5.24,3.01-10.73,3.01-16.34,0-25.06-20.38-45.44-45.44-45.44-9.01,0-17.73,2.65-25.32,7.64-13.51-23.44-38.68-38-65.68-38-5.76,0-11.37.67-16.76,1.89,13.78-30.9,37.15-57.26,67.45-74.46,9.79-5.46,14.93-16.97,12.5-27.99-2.45-11.1-11.72-19.21-23.02-20.18-6.06-.56-12.4-.83-19.37-.83-60.75,0-117.84,23.7-160.78,66.74C26.71,244.8,3.08,301.99,3.08,362.82s23.64,118.02,66.56,161.02c42.9,42.98,99.95,66.64,160.66,66.64h.22c59.42,0,115.66-22.9,158.37-64.49,8.12-7.95,10.12-20.08,4.99-30.19-5.17-10.17-16.2-15.68-27.54-13.72ZM262.3,302.12c2.09,3.61,5.6,6.21,9.63,7.15,4.06.95,8.38.15,11.8-2.16,5.02-3.36,10.86-5.13,16.88-5.13,16.78,0,30.44,13.66,30.44,30.44,0,3.78-.68,7.47-2.01,10.96-1.62,4.2-1.3,8.84.88,12.73l2.15,3.83h.93c2.02,1.86,4.5,3.13,7.18,3.64,21.12,4.31,36.44,23.11,36.44,44.72,0,25.15-20.46,45.62-45.62,45.62h-174.52c-29.34,0-53.2-23.87-53.2-53.2,0-22.56,14.28-42.74,35.58-50.23,6.28-2.25,10.32-8.25,10.04-14.92-.05-1.16-.09-2.2-.09-3.15,0-33.52,27.27-60.79,60.79-60.79,21.66,0,41.85,11.68,52.7,30.5ZM378.4,515.26c-39.87,38.83-92.39,60.22-147.89,60.22h-.21c-56.7,0-109.98-22.1-150.05-62.24-40.09-40.17-62.17-93.59-62.17-150.43s22.08-110.25,62.16-150.44c40.1-40.2,93.42-62.34,150.16-62.34,6.51,0,12.39.25,18.04.77,4.7.4,8.69,3.89,9.71,8.47,1.02,4.61-1.1,9.4-5.2,11.69-37.39,21.22-65.12,55.17-79.03,94.6-23.84,12.78-40.1,37.94-40.1,66.84,0,1.24.05,2.44.1,3.78,0,.09-.03.13-.07.15-27.25,9.58-45.56,35.44-45.56,64.36,0,37.61,30.6,68.2,68.2,68.2h83.84c28.1,19.28,62.06,30.58,98.6,30.58,10.51,0,20.65-.89,30.05-2.63,4.73-.82,9.35,1.49,11.51,5.75,2.15,4.24,1.3,9.33-2.1,12.66Z"/>
</svg>