<?xml version="1.0" encoding="UTF-8"?>
<svg id="Layer_1" data-name="Layer 1" xmlns="http://www.w3.org/2000/svg" viewBox="0 0 600 600">
  <defs>
    <style>
      .cls-1 {
        fill: #fff;
      }
    </style>
  </defs>
  <path class="cls-1" d="M114.51,323.78h91.76c19.26,0,37.78,7.64,51.4,21.34,13.62,13.7,21.34,32.14,21.34,51.4v91.76c0,14.78,15.61,24.41,28.81,17.85l78.3-39.19c15.78-7.89,25.74-24,25.74-41.6v-79.47c105.37-69.58,112.51-176.12,101.8-237.9-1.66-9.63-9.22-17.19-18.85-18.85-61.78-10.71-168.23-3.57-237.9,101.8h-79.47c-17.6,0-33.71,9.96-41.6,25.74l-39.19,78.3c-6.64,13.29,2.99,28.81,17.85,28.81ZM177.45,204.21h71.16c-16.77,28.56-30.97,63.61-41.35,106.29h-92.75c-4.9,0-8.14-5.23-5.98-9.63l39.19-78.3c5.65-11.29,17.11-18.35,29.73-18.35ZM492.57,102.16c4.15.75,7.31,3.9,8.05,8.05,6.64,38.28,5.98,94.25-22.59,146.56-27.65,50.57-82.46,99.56-186.91,125.3-2.99-17.44-11.29-33.71-24-46.42-12.7-12.7-28.98-21.01-46.42-24,25.74-104.46,74.73-159.26,125.3-186.91,52.23-28.48,108.2-29.15,146.56-22.59ZM292.29,488.28v-91.76h0v-1c42.68-10.38,77.72-24.58,106.29-41.35v71.16c0,12.62-7.14,24.08-18.35,29.73l-78.3,39.19c-4.4,2.24-9.63-1-9.63-5.98Z"/>
  <path class="cls-1" d="M231.26,371.53c-28.56-28.56-74.82-28.56-103.38,0-28.48,28.4-34.04,83.45-34.79,114.76-.33,13.29,10.13,23.75,23.42,23.42,31.3-.75,86.36-6.31,114.76-34.79,28.56-28.56,28.56-74.82,0-103.38ZM221.88,465.53c-11.71,11.71-29.73,19.43-49.99,24.25-20.01,4.73-40.52,6.31-55.63,6.64-5.65.17-9.96-4.15-9.8-9.8.33-15.11,1.91-35.71,6.64-55.63,4.82-20.26,12.54-38.28,24.25-49.99,23.33-23.33,61.28-23.33,84.61,0,23.33,23.33,23.33,61.28,0,84.61l-.08-.08Z"/>
  <path class="cls-1" d="M398.58,250.71c25.68,0,46.5-20.82,46.5-46.5s-20.82-46.5-46.5-46.5-46.5,20.82-46.5,46.5,20.82,46.5,46.5,46.5ZM398.58,171c18.34,0,33.21,14.87,33.21,33.21s-14.87,33.21-33.21,33.21-33.21-14.87-33.21-33.21,14.87-33.21,33.21-33.21Z"/>
  <circle class="cls-1" cx="111.21" cy="148.39" r="21.95" transform="translate(-51.41 59.28) rotate(-24.43)"/>
  <path class="cls-1" d="M535.24,219.76c-.77-2.24-3.95-2.13-4.56.15-1.09,4.06-2.29,8.09-3.58,12.08-.14.45-.15.92-.02,1.37,6.32,21.54,9.52,43.95,9.52,66.63,0,31.95-6.25,62.93-18.59,92.09-11.92,28.17-28.98,53.48-50.71,75.21-21.73,21.73-47.04,38.79-75.21,50.71-29.16,12.33-60.15,18.59-92.09,18.59s-62.93-6.25-92.09-18.59c-.94-.4-1.88-.82-2.81-1.23l-.23-.1c-3.37,1.3-6.9,2.52-10.57,3.67-2.06.65-2.25,3.51-.29,4.43,32.95,15.54,69.36,23.72,106,23.72,66.38,0,128.78-25.85,175.71-72.78,46.94-46.93,72.78-109.34,72.78-175.71,0-27.55-4.45-54.48-13.26-80.24Z"/>
  <path class="cls-1" d="M145.66,117.57c.88.98,2.36,1.07,3.37.24,17.77-14.77,37.56-26.81,58.87-35.82,29.16-12.33,60.15-18.59,92.09-18.59,24.83,0,49.26,3.82,72.63,11.37.47.15.97.16,1.44.01,3.84-1.17,7.76-2.27,11.74-3.28,2.32-.59,2.5-3.83.26-4.66-27.5-10.18-56.39-15.34-86.08-15.34-58.27,0-114.57,20.44-159.17,57.67-1.18.98-1.14,2.78.03,3.76,1.71,1.43,3.31,2.97,4.8,4.63Z"/>
  <path class="cls-1" d="M88.48,188.63c-1.9-1.08-3.72-2.28-5.44-3.61-1.25-.96-3.07-.6-3.79.8-18.16,35.08-27.74,74.43-27.74,114.18s8.92,76.34,25.88,110.49c1.01,2.03,4,1.79,4.67-.38.96-3.16,1.99-6.24,3.07-9.21.23-.62.2-1.3-.08-1.9-1.07-2.31-2.1-4.63-3.06-6.9-12.33-29.16-18.59-60.15-18.59-92.09s6.25-62.93,18.59-92.09c2.22-5.25,4.73-10.6,7.48-15.93.62-1.2.19-2.67-.98-3.34Z"/>
</svg>