<?xml version="1.0" encoding="UTF-8"?>
<svg id="Layer_1" data-name="Layer 1" xmlns="http://www.w3.org/2000/svg" viewBox="0 0 419.11 388">
  <defs>
    <style>
      .cls-1 {
        fill: #fff;
      }
    </style>
  </defs>
  <path class="cls-1" d="M54.62,291.24c-17.44-28.31-27.51-61.62-27.51-97.24C27.11,91.44,110.55,8,213.11,8c57.77,0,109.47,26.48,143.62,67.93,1.89-2.21,3.61-4.3,5.18-6.27C326.29,27.11,272.81,0,213.11,0,106.14,0,19.11,87.03,19.11,194c0,36.64,10.21,70.94,27.94,100.2,2.38-.89,4.9-1.88,7.57-2.96Z"/>
  <path class="cls-1" d="M106.27,293.39c-2.48,1.3-4.94,2.57-7.37,3.8,28.2,31.18,68.96,50.81,114.21,50.81,84.92,0,154-69.08,154-154,0-26.85-6.92-52.12-19.05-74.12-1.95,1.9-3.95,3.81-5.99,5.74,10.87,20.41,17.04,43.69,17.04,68.38,0,80.5-65.5,146-146,146-42.14,0-80.17-17.96-106.84-46.61Z"/>
  <path class="cls-1" d="M213.11,88c35.34,0,66.69,17.39,85.96,44.05,2.05-1.76,4.06-3.52,6.06-5.27-20.76-28.34-54.27-46.78-92.01-46.78-62.86,0-114,51.14-114,114,0,24.07,7.51,46.43,20.3,64.85,2.3-1.31,4.62-2.64,6.96-4-12.12-17.23-19.25-38.22-19.25-60.85,0-58.45,47.55-106,106-106Z"/>
  <path class="cls-1" d="M213.11,300c-27.03,0-51.72-10.17-70.46-26.88-2.43,1.43-4.84,2.83-7.24,4.22,20.38,19.01,47.7,30.67,77.7,30.67,62.86,0,114-51.14,114-114,0-16.39-3.48-31.97-9.73-46.06-2.09,1.81-4.21,3.64-6.36,5.47,5.21,12.51,8.09,26.22,8.09,40.6,0,58.45-47.55,106-106,106Z"/>
  <path class="cls-1" d="M222.4,211.77c51.1-36.15,96.65-73.71,128.28-105.75,33.94-34.39,47.15-57.48,39.26-68.62-5.86-8.28-21.83-7.76-47.59,1.48,2.36,1.97,4.68,3.99,6.95,6.07,11.76-3.94,20.22-5.53,25.84-5.53,4.45,0,7.13.99,8.26,2.6h0c2.38,3.37-.05,12.24-11.26,27.42l.08.1-4.07,5.11s-.07.09-.11.13c-.77.96-1.57,1.95-2.4,2.96-.11.13-.22.26-.32.39-.74.9-1.52,1.82-2.31,2.75-.07.09-.14.17-.21.26l-6.2,7.25-.1-.12c-3.46,3.8-7.29,7.85-11.53,12.14-31.3,31.72-76.48,68.95-127.2,104.84-50.73,35.89-100.87,66.1-141.2,85.06-3.59,1.69-7,3.23-10.27,4.67l.07.11-8.37,3.41c-.4.16-.8.32-1.19.48-.67.27-1.32.53-1.98.79-.3.12-.6.24-.9.36-.97.38-1.92.75-2.85,1.1-.06.02-.13.05-.19.07-.35.13-.7.27-1.04.39l-6.21,2.32-.06-.09c-21.53,7.31-32.24,6.86-34.84,3.18-2.79-3.94,1.01-15.42,17.79-35.75-1.17-2.81-2.27-5.66-3.31-8.52-20.2,23.62-27.27,40.03-21.01,48.89,2.76,3.91,7.78,5.86,15,5.86,13.39,0,34.38-6.69,62.77-20.04,40.74-19.16,91.32-49.62,142.42-85.77Z"/>
  <circle class="cls-1" cx="403.11" cy="189" r="16"/>
  <circle class="cls-1" cx="98.9" cy="96" r="12.5"/>
  <path class="cls-1" d="M371.12,95.98c13,20.89,21.98,44.52,25.85,69.82,1.96-.52,4.02-.8,6.14-.8.62,0,1.23.03,1.84.08-4.12-27.42-13.99-52.99-28.35-75.41-1.73,2.05-3.56,4.16-5.48,6.32Z"/>
  <path class="cls-1" d="M398.19,212.49c-9.31,93.91-88.76,167.51-185.08,167.51-58.12,0-110.1-26.81-144.23-68.7-2.64,1.13-5.21,2.19-7.7,3.18,35.57,44.76,90.45,73.51,151.93,73.51,100.63,0,183.6-77.02,193.09-175.21-1.01.13-2.04.21-3.09.21-1.69,0-3.33-.18-4.92-.51Z"/>
  <path class="cls-1" d="M84.04,110.09c-15.76,24.16-24.93,52.98-24.93,83.91s9.15,59.69,24.88,83.83c2.36-1.18,4.76-2.39,7.18-3.64-15.2-23.03-24.06-50.59-24.06-80.19s8.63-56.44,23.46-79.28c-2.47-1.11-4.69-2.69-6.53-4.63Z"/>
  <path class="cls-1" d="M328.83,105.09c1.97-1.89,3.89-3.76,5.77-5.62-28.21-36.17-72.17-59.47-121.49-59.47-39.34,0-75.27,14.83-102.52,39.19,2.21,1.54,4.09,3.5,5.55,5.77,25.81-22.97,59.78-36.96,96.97-36.96,47.07,0,89,22.4,115.72,57.09Z"/>
</svg>