<?xml version="1.0" encoding="UTF-8"?>
<svg id="Layer_1" data-name="Layer 1" xmlns="http://www.w3.org/2000/svg" xmlns:xlink="http://www.w3.org/1999/xlink" viewBox="0 0 419.11 545.28">
  <defs>
    <style>
      .cls-1 {
        fill: url(#linear-gradient);
      }

      .cls-2 {
        fill: #fff;
      }
    </style>
    <linearGradient id="linear-gradient" x1="209.55" y1="0" x2="209.55" y2="388" gradientUnits="userSpaceOnUse">
      <stop offset="0" stop-color="#6610f2"/>
      <stop offset=".51" stop-color="#d63384"/>
      <stop offset="1" stop-color="#fd7e14"/>
    </linearGradient>
  </defs>
  <path class="cls-1" d="M47.05,294.2c-17.73-29.27-27.94-63.56-27.94-100.2C19.11,87.03,106.14,0,213.11,0c59.7,0,113.18,27.11,148.8,69.67-1.57,1.97-3.29,4.06-5.18,6.27C322.58,34.48,270.88,8,213.11,8,110.55,8,27.11,91.44,27.11,194c0,35.62,10.07,68.93,27.51,97.24-2.67,1.09-5.19,2.07-7.57,2.96ZM106.27,293.39c-2.48,1.3-4.94,2.57-7.37,3.8,28.2,31.18,68.96,50.81,114.21,50.81,84.92,0,154-69.08,154-154,0-26.85-6.92-52.12-19.05-74.12-1.95,1.9-3.95,3.81-5.99,5.74,10.87,20.41,17.04,43.69,17.04,68.38,0,80.5-65.5,146-146,146-42.14,0-80.17-17.96-106.84-46.61ZM213.11,88c35.34,0,66.69,17.39,85.96,44.05,2.05-1.76,4.06-3.52,6.06-5.27-20.76-28.34-54.27-46.78-92.01-46.78-62.86,0-114,51.14-114,114,0,24.07,7.51,46.43,20.3,64.85,2.3-1.31,4.62-2.64,6.96-4-12.12-17.23-19.25-38.22-19.25-60.85,0-58.45,47.55-106,106-106ZM213.11,300c-27.03,0-51.72-10.17-70.46-26.88-2.43,1.43-4.84,2.83-7.24,4.22,20.38,19.01,47.7,30.67,77.7,30.67,62.86,0,114-51.14,114-114,0-16.39-3.48-31.97-9.73-46.06-2.09,1.81-4.21,3.64-6.36,5.47,5.21,12.51,8.09,26.22,8.09,40.6,0,58.45-47.55,106-106,106ZM222.4,211.77c51.1-36.15,96.65-73.71,128.28-105.75,33.94-34.39,47.15-57.48,39.26-68.62-5.86-8.28-21.83-7.76-47.59,1.48,2.36,1.97,4.68,3.99,6.95,6.07,11.76-3.94,20.22-5.53,25.84-5.53,4.45,0,7.13.99,8.26,2.6h0c2.38,3.37-.05,12.24-11.26,27.42l.08.1-4.07,5.11s-.07.09-.11.13c-.77.96-1.57,1.95-2.4,2.96-.11.13-.22.26-.32.39-.74.9-1.52,1.82-2.31,2.75-.07.09-.14.17-.21.26l-6.2,7.25-.1-.12c-3.46,3.8-7.29,7.85-11.53,12.14-31.3,31.72-76.48,68.95-127.2,104.84-50.73,35.89-100.87,66.1-141.2,85.06-3.59,1.69-7,3.23-10.27,4.67l.07.11-8.37,3.41c-.4.16-.8.32-1.19.48-.67.27-1.32.53-1.98.79-.3.12-.6.24-.9.36-.97.38-1.92.75-2.85,1.1-.06.02-.13.05-.19.07-.35.13-.7.27-1.04.39l-6.21,2.32-.06-.09c-21.53,7.31-32.24,6.86-34.84,3.18-2.79-3.94,1.01-15.42,17.79-35.75-1.17-2.81-2.27-5.66-3.31-8.52-20.2,23.62-27.27,40.03-21.01,48.89,2.76,3.91,7.78,5.86,15,5.86,13.39,0,34.38-6.69,62.77-20.04,40.74-19.16,91.32-49.62,142.42-85.77ZM403.11,173c-8.84,0-16,7.16-16,16s7.16,16,16,16,16-7.16,16-16-7.16-16-16-16ZM111.4,96c0-6.9-5.6-12.5-12.5-12.5s-12.5,5.6-12.5,12.5,5.6,12.5,12.5,12.5,12.5-5.6,12.5-12.5ZM371.12,95.98c13,20.89,21.98,44.52,25.85,69.82,1.96-.52,4.02-.8,6.14-.8.62,0,1.23.03,1.84.08-4.12-27.42-13.99-52.99-28.35-75.41-1.73,2.05-3.56,4.16-5.48,6.32ZM398.19,212.49c-9.31,93.91-88.76,167.51-185.08,167.51-58.12,0-110.1-26.81-144.23-68.7-2.64,1.13-5.21,2.19-7.7,3.18,35.57,44.76,90.45,73.51,151.93,73.51,100.63,0,183.6-77.02,193.09-175.21-1.01.13-2.04.21-3.09.21-1.69,0-3.33-.18-4.92-.51ZM84.04,110.09c-15.76,24.16-24.93,52.98-24.93,83.91s9.15,59.69,24.88,83.83c2.36-1.18,4.76-2.39,7.18-3.64-15.2-23.03-24.06-50.59-24.06-80.19s8.63-56.44,23.46-79.28c-2.47-1.11-4.69-2.69-6.53-4.63ZM328.83,105.09c1.97-1.89,3.89-3.76,5.77-5.62-28.21-36.17-72.17-59.47-121.49-59.47-39.34,0-75.27,14.83-102.52,39.19,2.21,1.54,4.09,3.5,5.55,5.77,25.81-22.97,59.78-36.96,96.97-36.96,47.07,0,89,22.4,115.72,57.09Z"/>
  <g>
    <path class="cls-2" d="M36.03,459.21c0-3.97.65-7.57,1.96-10.81,1.31-3.24,3.11-6.01,5.42-8.29,2.31-2.29,5.06-4.05,8.26-5.29,3.2-1.24,6.71-1.86,10.53-1.86,3.87-.05,7.42.53,10.64,1.71,3.22,1.19,6,2.93,8.33,5.22,2.33,2.29,4.15,5.04,5.46,8.26,1.31,3.22,1.96,6.81,1.96,10.78s-.65,7.4-1.96,10.57c-1.31,3.17-3.13,5.9-5.46,8.19-2.33,2.29-5.11,4.07-8.33,5.35-3.22,1.28-6.77,1.95-10.64,2-3.83,0-7.34-.62-10.53-1.85-3.2-1.24-5.95-2.99-8.26-5.25s-4.12-4.98-5.42-8.16c-1.31-3.17-1.96-6.7-1.96-10.57ZM45.27,458.65c0,2.66.41,5.11,1.23,7.35.82,2.24,1.97,4.18,3.46,5.81,1.49,1.63,3.28,2.92,5.35,3.85,2.08.93,4.4,1.4,6.97,1.4s4.9-.47,7-1.4c2.1-.93,3.9-2.22,5.39-3.85,1.49-1.63,2.65-3.57,3.47-5.81.82-2.24,1.23-4.69,1.23-7.35,0-2.47-.41-4.78-1.23-6.93-.82-2.15-1.97-4.03-3.47-5.64-1.49-1.61-3.29-2.87-5.39-3.78-2.1-.91-4.43-1.37-7-1.37s-4.89.46-6.97,1.37c-2.08.91-3.86,2.17-5.35,3.78-1.49,1.61-2.65,3.49-3.46,5.64-.82,2.15-1.23,4.46-1.23,6.93Z"/>
    <path class="cls-2" d="M107.5,434.22h17.22c2.38,0,4.68.22,6.9.67,2.22.44,4.19,1.2,5.92,2.27,1.73,1.07,3.1,2.52,4.13,4.34,1.03,1.82,1.54,4.13,1.54,6.93,0,3.59-.99,6.6-2.98,9.03-1.98,2.43-4.82,3.9-8.5,4.41l13.16,21.91h-10.64l-11.48-21h-6.44v21h-8.82v-49.56ZM123.18,455.22c1.26,0,2.52-.06,3.78-.18,1.26-.12,2.41-.4,3.46-.84,1.05-.44,1.9-1.12,2.55-2.03.65-.91.98-2.18.98-3.81,0-1.45-.3-2.61-.91-3.5-.61-.89-1.4-1.55-2.38-2-.98-.44-2.07-.74-3.26-.88s-2.34-.21-3.46-.21h-7.63v13.44h6.86Z"/>
    <path class="cls-2" d="M162.09,434.22h19.32c1.87,0,3.71.22,5.53.67,1.82.44,3.44,1.17,4.87,2.17,1.42,1,2.58,2.3,3.46,3.88.89,1.59,1.33,3.5,1.33,5.74,0,2.8-.79,5.11-2.38,6.93-1.59,1.82-3.66,3.13-6.23,3.92v.14c1.54.19,2.97.62,4.3,1.29,1.33.68,2.46,1.54,3.4,2.59.93,1.05,1.67,2.26,2.21,3.64.54,1.38.81,2.86.81,4.45,0,2.71-.54,4.96-1.61,6.75-1.07,1.8-2.48,3.24-4.23,4.34-1.75,1.1-3.76,1.88-6.02,2.34-2.26.47-4.56.7-6.9.7h-17.85v-49.56ZM170.92,454.38h8.05c2.94,0,5.15-.57,6.62-1.71,1.47-1.14,2.21-2.65,2.21-4.51,0-2.15-.76-3.75-2.28-4.79-1.52-1.05-3.95-1.58-7.31-1.58h-7.28v12.6ZM170.92,476.22h8.12c1.12,0,2.32-.07,3.6-.21,1.28-.14,2.46-.47,3.53-.98,1.07-.51,1.96-1.25,2.66-2.21.7-.96,1.05-2.25,1.05-3.88,0-2.61-.85-4.43-2.55-5.46-1.7-1.03-4.35-1.54-7.95-1.54h-8.47v14.28Z"/>
    <path class="cls-2" d="M217.74,434.22h8.82v49.56h-8.82v-49.56Z"/>
    <path class="cls-2" d="M258.07,442.2h-15.19v-7.98h39.2v7.98h-15.19v41.58h-8.82v-41.58Z"/>
    <path class="cls-2" d="M308.18,434.22h7.63l21.35,49.56h-10.08l-4.62-11.34h-21.49l-4.48,11.34h-9.87l21.56-49.56ZM319.38,464.88l-7.63-20.16-7.77,20.16h15.4Z"/>
    <path class="cls-2" d="M353.19,434.22h8.82v41.58h21.07v7.98h-29.89v-49.56Z"/>
  </g>
  <g>
    <path class="cls-2" d="M146.54,516.24h4.36l12.2,28.32h-5.76l-2.64-6.48h-12.28l-2.56,6.48h-5.64l12.32-28.32ZM152.94,533.77l-4.36-11.52-4.44,11.52h8.8Z"/>
    <path class="cls-2" d="M176.37,520.81h-8.68v-4.56h22.4v4.56h-8.68v23.76h-5.04v-23.76Z"/>
    <path class="cls-2" d="M201.54,516.24h5.04v23.76h12.04v4.56h-17.08v-28.32Z"/>
    <path class="cls-2" d="M239.45,516.24h4.36l12.2,28.32h-5.76l-2.64-6.48h-12.28l-2.56,6.48h-5.64l12.32-28.32ZM245.85,533.77l-4.36-11.52-4.44,11.52h8.8Z"/>
    <path class="cls-2" d="M281.05,522.32c-.53-.77-1.25-1.34-2.14-1.7-.89-.36-1.83-.54-2.82-.54-.59,0-1.15.07-1.7.2-.55.13-1.04.35-1.48.64-.44.29-.79.67-1.06,1.14-.27.47-.4,1.02-.4,1.66,0,.96.33,1.69,1,2.2.67.51,1.49.95,2.48,1.32.99.37,2.07.73,3.24,1.08,1.17.35,2.25.83,3.24,1.44.99.61,1.81,1.43,2.48,2.44.67,1.01,1,2.36,1,4.04,0,1.52-.28,2.85-.84,3.98-.56,1.13-1.31,2.07-2.26,2.82-.95.75-2.05,1.31-3.3,1.68-1.25.37-2.57.56-3.96.56-1.76,0-3.45-.29-5.08-.88-1.63-.59-3.03-1.57-4.2-2.96l3.8-3.68c.61.93,1.42,1.66,2.42,2.18,1,.52,2.06.78,3.18.78.59,0,1.17-.08,1.76-.24.59-.16,1.12-.4,1.6-.72.48-.32.87-.73,1.16-1.22.29-.49.44-1.06.44-1.7,0-1.04-.33-1.84-1-2.4-.67-.56-1.49-1.03-2.48-1.42-.99-.39-2.07-.75-3.24-1.1s-2.25-.82-3.24-1.42c-.99-.6-1.81-1.4-2.48-2.4-.67-1-1-2.34-1-4.02,0-1.47.3-2.73.9-3.8.6-1.07,1.39-1.95,2.36-2.66.97-.71,2.09-1.23,3.34-1.58,1.25-.35,2.53-.52,3.84-.52,1.49,0,2.94.23,4.34.68,1.4.45,2.66,1.2,3.78,2.24l-3.68,3.88Z"/>
  </g>
</svg>