<?xml version="1.0" encoding="UTF-8"?>
<svg id="Layer_1" data-name="Layer 1" xmlns="http://www.w3.org/2000/svg" xmlns:xlink="http://www.w3.org/1999/xlink" viewBox="0 0 675.94 250">
  <defs>
    <style>
      .cls-1 {
        fill: url(#linear-gradient);
      }

      .cls-2 {
        fill: #fff;
      }
    </style>
    <linearGradient id="linear-gradient" x1="135.02" y1="0" x2="135.02" y2="250" gradientUnits="userSpaceOnUse">
      <stop offset="0" stop-color="#6610f2"/>
      <stop offset=".51" stop-color="#d63384"/>
      <stop offset="1" stop-color="#fd7e14"/>
    </linearGradient>
  </defs>
  <path class="cls-1" d="M30.31,189.56c-11.42-18.86-18-40.96-18-64.56C12.31,56.07,68.39,0,137.31,0c38.47,0,72.93,17.47,95.87,44.89-1.01,1.27-2.12,2.61-3.34,4.04-22-26.71-55.31-43.77-92.54-43.77C71.23,5.15,17.47,58.92,17.47,125c0,22.95,6.49,44.41,17.72,62.66-1.72.7-3.34,1.34-4.88,1.91ZM68.47,189.04c-1.6.84-3.18,1.66-4.75,2.45,18.17,20.09,44.43,32.74,73.59,32.74,54.71,0,99.23-44.51,99.23-99.23,0-17.3-4.46-33.58-12.27-47.76-1.26,1.22-2.55,2.46-3.86,3.7,7,13.15,10.98,28.15,10.98,44.06,0,51.87-42.2,94.07-94.07,94.07-27.15,0-51.65-11.57-68.84-30.03ZM137.31,56.7c22.77,0,42.97,11.2,55.39,28.38,1.32-1.14,2.62-2.27,3.9-3.39-13.38-18.26-34.97-30.14-59.29-30.14-40.5,0-73.45,32.95-73.45,73.45,0,15.51,4.84,29.91,13.08,41.78,1.48-.85,2.98-1.7,4.48-2.58-7.81-11.1-12.41-24.63-12.41-39.2,0-37.66,30.64-68.3,68.3-68.3ZM137.31,193.3c-17.41,0-33.32-6.55-45.4-17.32-1.57.92-3.12,1.83-4.67,2.72,13.13,12.25,30.74,19.76,50.07,19.76,40.5,0,73.45-32.95,73.45-73.45,0-10.56-2.24-20.6-6.27-29.68-1.35,1.17-2.71,2.34-4.1,3.52,3.36,8.06,5.21,16.9,5.21,26.16,0,37.66-30.64,68.3-68.3,68.3ZM143.3,136.45c32.92-23.29,62.28-47.49,82.65-68.14,21.87-22.16,30.38-37.03,25.3-44.21-3.78-5.34-14.07-5-30.66.96,1.52,1.27,3.01,2.57,4.48,3.91,7.58-2.54,13.03-3.56,16.65-3.56,2.87,0,4.59.64,5.33,1.68h0c1.54,2.17-.03,7.89-7.25,17.67l.05.06-2.62,3.29s-.05.06-.07.08c-.49.62-1.01,1.26-1.55,1.9-.07.08-.14.17-.21.25-.48.58-.98,1.17-1.49,1.77-.05.06-.09.11-.14.16l-3.99,4.67-.06-.08c-2.23,2.45-4.7,5.06-7.43,7.82-20.17,20.44-49.28,44.43-81.96,67.55-32.68,23.12-64.99,42.59-90.98,54.81-2.31,1.09-4.51,2.08-6.62,3.01l.05.07-5.4,2.2c-.26.11-.51.21-.77.31-.43.17-.85.34-1.27.51-.19.08-.39.15-.58.23-.62.25-1.24.48-1.84.71-.04.02-.08.03-.12.05-.22.09-.45.17-.67.25l-4,1.5-.04-.06c-13.87,4.71-20.77,4.42-22.45,2.05-1.8-2.54.65-9.94,11.46-23.04-.75-1.81-1.46-3.64-2.13-5.49-13.02,15.22-17.57,25.8-13.53,31.5,1.78,2.52,5.01,3.77,9.67,3.77,8.63,0,22.15-4.31,40.45-12.91,26.25-12.34,58.84-31.97,91.76-55.26ZM259.74,111.47c-5.69,0-10.31,4.62-10.31,10.31s4.62,10.31,10.31,10.31,10.31-4.62,10.31-10.31-4.62-10.31-10.31-10.31ZM71.78,61.86c0-4.45-3.61-8.05-8.05-8.05s-8.05,3.61-8.05,8.05,3.61,8.05,8.05,8.05,8.05-3.61,8.05-8.05ZM239.12,61.84c8.38,13.46,14.16,28.69,16.66,44.99,1.26-.33,2.59-.52,3.96-.52.4,0,.8.02,1.19.05-2.65-17.67-9.01-34.14-18.27-48.59-1.11,1.32-2.29,2.68-3.53,4.07ZM256.57,136.91c-6,60.51-57.19,107.93-119.25,107.93-37.45,0-70.94-17.27-92.93-44.26-1.7.73-3.36,1.41-4.96,2.05,22.92,28.84,58.28,47.37,97.9,47.37,64.84,0,118.3-49.63,124.41-112.89-.65.08-1.31.13-1.99.13-1.09,0-2.15-.11-3.17-.33ZM54.15,70.93c-10.15,15.56-16.07,34.14-16.07,54.07s5.9,38.46,16.03,54.01c1.52-.76,3.07-1.54,4.63-2.34-9.79-14.84-15.5-32.6-15.5-51.67s5.56-36.37,15.12-51.09c-1.59-.71-3.02-1.73-4.21-2.98ZM211.87,67.71c1.27-1.22,2.51-2.42,3.72-3.62-18.17-23.3-46.5-38.32-78.28-38.32-25.35,0-48.5,9.56-66.05,25.25,1.42.99,2.64,2.26,3.57,3.72,16.63-14.8,38.52-23.81,62.48-23.81,30.33,0,57.35,14.43,74.56,36.78Z"/>
  <g>
    <g>
      <path class="cls-2" d="M328.88,95.09c0-3.97.65-7.57,1.96-10.81,1.31-3.24,3.11-6.01,5.42-8.29,2.31-2.29,5.06-4.05,8.26-5.29,3.2-1.24,6.71-1.86,10.53-1.86,3.87-.05,7.42.53,10.64,1.71,3.22,1.19,6,2.93,8.33,5.22,2.33,2.29,4.15,5.04,5.46,8.26,1.31,3.22,1.96,6.81,1.96,10.78s-.65,7.4-1.96,10.57c-1.31,3.17-3.13,5.9-5.46,8.19-2.33,2.29-5.11,4.07-8.33,5.35-3.22,1.28-6.77,1.95-10.64,2-3.83,0-7.34-.62-10.53-1.85-3.2-1.24-5.95-2.99-8.26-5.25s-4.12-4.98-5.42-8.16c-1.31-3.17-1.96-6.7-1.96-10.57ZM338.12,94.53c0,2.66.41,5.11,1.23,7.35.82,2.24,1.97,4.18,3.46,5.81,1.49,1.63,3.28,2.92,5.35,3.85,2.08.93,4.4,1.4,6.97,1.4s4.9-.47,7-1.4c2.1-.93,3.9-2.22,5.39-3.85,1.49-1.63,2.65-3.57,3.47-5.81.82-2.24,1.23-4.69,1.23-7.35,0-2.47-.41-4.78-1.23-6.93-.82-2.15-1.97-4.03-3.47-5.64-1.49-1.61-3.29-2.87-5.39-3.78-2.1-.91-4.43-1.37-7-1.37s-4.89.46-6.97,1.37c-2.08.91-3.86,2.17-5.35,3.78-1.49,1.61-2.65,3.49-3.46,5.64-.82,2.15-1.23,4.46-1.23,6.93Z"/>
      <path class="cls-2" d="M400.35,70.1h17.22c2.38,0,4.68.22,6.9.67,2.22.44,4.19,1.2,5.92,2.27,1.73,1.07,3.1,2.52,4.13,4.34,1.03,1.82,1.54,4.13,1.54,6.93,0,3.59-.99,6.6-2.98,9.03-1.98,2.43-4.82,3.9-8.5,4.41l13.16,21.91h-10.64l-11.48-21h-6.44v21h-8.82v-49.56ZM416.03,91.1c1.26,0,2.52-.06,3.78-.18,1.26-.12,2.41-.4,3.46-.84,1.05-.44,1.9-1.12,2.55-2.03.65-.91.98-2.18.98-3.81,0-1.45-.3-2.61-.91-3.5-.61-.89-1.4-1.55-2.38-2-.98-.44-2.07-.74-3.26-.88s-2.34-.21-3.46-.21h-7.63v13.44h6.86Z"/>
      <path class="cls-2" d="M454.95,70.1h19.32c1.87,0,3.71.22,5.53.67,1.82.44,3.44,1.17,4.87,2.17,1.42,1,2.58,2.3,3.46,3.88.89,1.59,1.33,3.5,1.33,5.74,0,2.8-.79,5.11-2.38,6.93-1.59,1.82-3.66,3.13-6.23,3.92v.14c1.54.19,2.97.62,4.3,1.29,1.33.68,2.46,1.54,3.4,2.59.93,1.05,1.67,2.26,2.21,3.64.54,1.38.81,2.86.81,4.45,0,2.71-.54,4.96-1.61,6.75-1.07,1.8-2.48,3.24-4.23,4.34-1.75,1.1-3.76,1.88-6.02,2.34-2.26.47-4.56.7-6.9.7h-17.85v-49.56ZM463.77,90.26h8.05c2.94,0,5.15-.57,6.62-1.71,1.47-1.14,2.21-2.65,2.21-4.51,0-2.15-.76-3.75-2.28-4.79-1.52-1.05-3.95-1.58-7.31-1.58h-7.28v12.6ZM463.77,112.1h8.12c1.12,0,2.32-.07,3.6-.21,1.28-.14,2.46-.47,3.53-.98,1.07-.51,1.96-1.25,2.66-2.21.7-.96,1.05-2.25,1.05-3.88,0-2.61-.85-4.43-2.55-5.46-1.7-1.03-4.35-1.54-7.95-1.54h-8.47v14.28Z"/>
      <path class="cls-2" d="M510.6,70.1h8.82v49.56h-8.82v-49.56Z"/>
      <path class="cls-2" d="M550.92,78.08h-15.19v-7.98h39.2v7.98h-15.19v41.58h-8.82v-41.58Z"/>
      <path class="cls-2" d="M601.04,70.1h7.63l21.35,49.56h-10.08l-4.62-11.34h-21.49l-4.48,11.34h-9.87l21.56-49.56ZM612.24,100.76l-7.63-20.16-7.77,20.16h15.4Z"/>
      <path class="cls-2" d="M646.05,70.1h8.82v41.58h21.07v7.98h-29.89v-49.56Z"/>
    </g>
    <g>
      <path class="cls-2" d="M439.39,152.12h4.36l12.2,28.32h-5.76l-2.64-6.48h-12.28l-2.56,6.48h-5.64l12.32-28.32ZM445.79,169.65l-4.36-11.52-4.44,11.52h8.8Z"/>
      <path class="cls-2" d="M469.23,156.69h-8.68v-4.56h22.4v4.56h-8.68v23.76h-5.04v-23.76Z"/>
      <path class="cls-2" d="M494.39,152.12h5.04v23.76h12.04v4.56h-17.08v-28.32Z"/>
      <path class="cls-2" d="M532.31,152.12h4.36l12.2,28.32h-5.76l-2.64-6.48h-12.28l-2.56,6.48h-5.64l12.32-28.32ZM538.71,169.65l-4.36-11.52-4.44,11.52h8.8Z"/>
      <path class="cls-2" d="M573.91,158.2c-.53-.77-1.25-1.34-2.14-1.7-.89-.36-1.83-.54-2.82-.54-.59,0-1.15.07-1.7.2-.55.13-1.04.35-1.48.64-.44.29-.79.67-1.06,1.14-.27.47-.4,1.02-.4,1.66,0,.96.33,1.69,1,2.2.67.51,1.49.95,2.48,1.32.99.37,2.07.73,3.24,1.08,1.17.35,2.25.83,3.24,1.44.99.61,1.81,1.43,2.48,2.44.67,1.01,1,2.36,1,4.04,0,1.52-.28,2.85-.84,3.98-.56,1.13-1.31,2.07-2.26,2.82-.95.75-2.05,1.31-3.3,1.68-1.25.37-2.57.56-3.96.56-1.76,0-3.45-.29-5.08-.88-1.63-.59-3.03-1.57-4.2-2.96l3.8-3.68c.61.93,1.42,1.66,2.42,2.18,1,.52,2.06.78,3.18.78.59,0,1.17-.08,1.76-.24.59-.16,1.12-.4,1.6-.72.48-.32.87-.73,1.16-1.22.29-.49.44-1.06.44-1.7,0-1.04-.33-1.84-1-2.4-.67-.56-1.49-1.03-2.48-1.42-.99-.39-2.07-.75-3.24-1.1s-2.25-.82-3.24-1.42c-.99-.6-1.81-1.4-2.48-2.4-.67-1-1-2.34-1-4.02,0-1.47.3-2.73.9-3.8.6-1.07,1.39-1.95,2.36-2.66.97-.71,2.09-1.23,3.34-1.58,1.25-.35,2.53-.52,3.84-.52,1.49,0,2.94.23,4.34.68,1.4.45,2.66,1.2,3.78,2.24l-3.68,3.88Z"/>
    </g>
  </g>
</svg>